<svg width="28" height="29" viewBox="0 0 28 29" fill="none" xmlns="http://www.w3.org/2000/svg">
<path fill-rule="evenodd" clip-rule="evenodd" d="M2.625 15.2018C2.625 8.7585 7.84834 3.53516 14.2917 3.53516C20.735 3.53516 25.9583 8.7585 25.9583 15.2018C25.9583 21.6451 20.735 26.8685 14.2917 26.8685C7.84834 26.8685 2.625 21.6451 2.625 15.2018ZM14.2917 5.33003C8.83963 5.33003 4.41987 9.74978 4.41987 15.2018C4.41987 20.6539 8.83963 25.0736 14.2917 25.0736C19.7437 25.0736 24.1635 20.6539 24.1635 15.2018C24.1635 9.74978 19.7437 5.33003 14.2917 5.33003Z" fill="#75E01D"/>
<path fill-rule="evenodd" clip-rule="evenodd" d="M19.1703 11.5572C19.5724 11.8253 19.681 12.3685 19.413 12.7706L16.1145 17.7183C15.0928 19.2508 12.9935 19.6104 11.52 18.5053L8.82661 16.4852C8.44001 16.1953 8.36166 15.6468 8.65161 15.2602C8.94156 14.8736 9.49001 14.7953 9.87661 15.0852L12.57 17.1053C13.2398 17.6076 14.194 17.4442 14.6584 16.7476L17.9569 11.7999C18.225 11.3978 18.7682 11.2891 19.1703 11.5572Z" fill="#75E01D"/>
</svg>
