<svg width="28" height="29" viewBox="0 0 28 29" fill="none" xmlns="http://www.w3.org/2000/svg">
<path fill-rule="evenodd" clip-rule="evenodd" d="M20.4428 9.5385V11.3274C22.4523 11.9546 23.9163 13.7737 23.9163 15.9463V21.706C23.9163 24.3957 21.6864 26.5765 18.9373 26.5765H9.06327C6.31292 26.5765 4.08301 24.3957 4.08301 21.706V15.9463C4.08301 13.7737 5.54828 11.9546 7.55651 11.3274V9.5385C7.56836 6.06042 10.4491 3.24316 13.9819 3.24316C17.5621 3.24316 20.4428 6.06042 20.4428 9.5385ZM14.0056 5.27205C16.4122 5.27205 18.3682 7.185 18.3682 9.5385V11.0758H9.63112V9.51532C9.64298 7.1734 11.599 5.27205 14.0056 5.27205ZM15.037 20.1073C15.037 20.6753 14.5746 21.1275 13.9937 21.1275C13.4247 21.1275 12.9624 20.6753 12.9624 20.1073V17.5335C12.9624 16.977 13.4247 16.5248 13.9937 16.5248C14.5746 16.5248 15.037 16.977 15.037 17.5335V20.1073Z" fill="#46557F"/>
</svg>
