<svg width="24" height="25" viewBox="0 0 24 25" fill="none" xmlns="http://www.w3.org/2000/svg">
<path d="M9.18736 15.6889L16.4284 8.44786C16.6534 8.22285 16.9397 8.11035 17.2875 8.11035C17.6352 8.11035 17.9216 8.22285 18.1466 8.44786C18.3716 8.67286 18.4841 8.95923 18.4841 9.30696C18.4841 9.65469 18.3716 9.94106 18.1466 10.1661L10.0465 18.2662C9.80101 18.5116 9.51464 18.6344 9.18736 18.6344C8.86008 18.6344 8.57372 18.5116 8.32826 18.2662L5.13731 15.0752C4.91231 14.8502 4.7998 14.5638 4.7998 14.2161C4.7998 13.8684 4.91231 13.582 5.13731 13.357C5.36231 13.132 5.64868 13.0195 5.99641 13.0195C6.34414 13.0195 6.63051 13.132 6.85551 13.357L9.18736 15.6889Z" fill="#46557F"/>
</svg>
