<svg width="24" height="25" viewBox="0 0 24 25" fill="none" xmlns="http://www.w3.org/2000/svg">
<path d="M12.575 14.8852L7.675 19.7852C7.49167 19.9685 7.25833 20.0602 6.975 20.0602C6.69167 20.0602 6.45833 19.9685 6.275 19.7852C6.09167 19.6018 6 19.3685 6 19.0852C6 18.8018 6.09167 18.5685 6.275 18.3852L11.175 13.4852L6.275 8.58516C6.09167 8.40182 6 8.16849 6 7.88516C6 7.60182 6.09167 7.36849 6.275 7.18516C6.45833 7.00182 6.69167 6.91016 6.975 6.91016C7.25833 6.91016 7.49167 7.00182 7.675 7.18516L12.575 12.0852L17.475 7.18516C17.6583 7.00182 17.8917 6.91016 18.175 6.91016C18.4583 6.91016 18.6917 7.00182 18.875 7.18516C19.0583 7.36849 19.15 7.60182 19.15 7.88516C19.15 8.16849 19.0583 8.40182 18.875 8.58516L13.975 13.4852L18.875 18.3852C19.0583 18.5685 19.15 18.8018 19.15 19.0852C19.15 19.3685 19.0583 19.6018 18.875 19.7852C18.6917 19.9685 18.4583 20.0602 18.175 20.0602C17.8917 20.0602 17.6583 19.9685 17.475 19.7852L12.575 14.8852Z" fill="#46557F"/>
</svg>
