<svg width="32" height="32" viewBox="0 0 32 32" fill="none" xmlns="http://www.w3.org/2000/svg">
<path d="M22.1741 17.508C22.0987 17.5853 21.8143 17.916 21.5493 18.188C19.9958 19.8987 15.9432 22.6987 13.822 23.5533C13.4999 23.6907 12.6855 23.9813 12.2504 24C11.8334 24 11.4359 23.904 11.0567 23.7093C10.5839 23.4373 10.2046 23.0093 9.99675 22.504C9.86296 22.1533 9.65514 21.104 9.65514 21.0853C9.44731 19.9373 9.33301 18.072 9.33301 16.0107C9.33301 14.0467 9.44731 12.2573 9.61747 11.092C9.63695 11.0733 9.84478 9.76933 10.0721 9.32267C10.489 8.50667 11.3035 8 12.175 8H12.2504C12.818 8.02 14.0117 8.52667 14.0117 8.54533C16.0185 9.40133 19.9776 12.064 21.5688 13.8333C21.5688 13.8333 22.0169 14.288 22.2117 14.572C22.5157 14.98 22.6663 15.4853 22.6663 15.9907C22.6663 16.5547 22.4962 17.08 22.1741 17.508" fill="#F58220"/>
</svg>
