<svg width="18" height="18" viewBox="0 0 18 18" fill="none" xmlns="http://www.w3.org/2000/svg">
<path d="M10.0403 8.99833L15.3138 2.71239C15.4021 2.60792 15.3278 2.44922 15.1912 2.44922H13.5881C13.4937 2.44922 13.4033 2.49141 13.341 2.56373L8.99165 7.74877L4.64232 2.56373C4.58206 2.49141 4.49165 2.44922 4.39523 2.44922H2.7921C2.65549 2.44922 2.58116 2.60792 2.66956 2.71239L7.94299 8.99833L2.66956 15.2843C2.64976 15.3075 2.63705 15.336 2.63295 15.3663C2.62886 15.3966 2.63354 15.4274 2.64644 15.4551C2.65934 15.4829 2.67993 15.5063 2.70575 15.5226C2.73156 15.539 2.76154 15.5476 2.7921 15.5474H4.39523C4.48965 15.5474 4.58005 15.5052 4.64232 15.4329L8.99165 10.2479L13.341 15.4329C13.4013 15.5052 13.4917 15.5474 13.5881 15.5474H15.1912C15.3278 15.5474 15.4021 15.3887 15.3138 15.2843L10.0403 8.99833Z" fill="#8C8C8C"/>
</svg>
