<svg width="70" height="70" viewBox="0 0 70 70" fill="none" xmlns="http://www.w3.org/2000/svg">
<path d="M60.7621 0H9.23788C6.7887 0.00280708 4.44064 0.976982 2.70881 2.70881C0.976982 4.44064 0.00280708 6.7887 0 9.23788L0 60.7621C0.00280708 63.2113 0.976982 65.5594 2.70881 67.2912C4.44064 69.023 6.7887 69.9972 9.23788 70H60.7621C63.2113 69.9972 65.5594 69.023 67.2912 67.2912C69.023 65.5594 69.9972 63.2113 70 60.7621V9.23788C69.9972 6.7887 69.023 4.44064 67.2912 2.70881C65.5594 0.976982 63.2113 0.00280708 60.7621 0V0ZM61.5151 2.12121L46.4864 17.15C46.4409 17.1915 46.405 17.2424 46.3812 17.2992C46.3574 17.356 46.3462 17.4173 46.3485 17.4788V23.5985C52.8182 17.1217 59.2879 10.6485 65.7576 4.17879C66.4287 4.83942 66.9619 5.62688 67.326 6.49539C67.6902 7.36389 67.8781 8.29612 67.8788 9.23788V11.8258L56.0424 23.6621H67.8788V28.2227H41.8197V2.12121H46.3591V13.9576L58.1954 2.12121H60.7621C61.0061 2.12121 61.2394 2.12121 61.5151 2.12121ZM11.7939 2.12121L23.6939 14.0212V2.12121H28.2545V28.2121H2.12121V23.6833H14.0955L13.9364 23.5136L6.60758 16.1848L2.12121 11.6667V9.23788C2.12121 8.99394 2.12121 8.75 2.12121 8.48485C7.14141 13.4909 12.1475 18.497 17.1394 23.503C17.1815 23.5512 17.2338 23.5896 17.2925 23.6152C17.3512 23.6409 17.4148 23.6533 17.4788 23.6515H23.6515L23.503 23.4924L4.24242 4.24242C4.89447 3.57743 5.6714 3.04773 6.52864 2.68372C7.38589 2.31971 8.30658 2.12855 9.23788 2.12121H11.7939ZM8.61212 67.8788L23.5667 52.85C23.6143 52.8074 23.6522 52.755 23.6779 52.6965C23.7035 52.6379 23.7162 52.5745 23.7152 52.5106C23.7152 50.5167 23.7152 48.5333 23.7152 46.5394C23.7152 46.4864 23.7152 46.4333 23.7152 46.3485C23.7152 46.2636 23.5985 46.4439 23.5561 46.497L4.24242 65.8106C3.57157 65.1519 3.03853 64.3663 2.67435 63.4996C2.31016 62.6328 2.12213 61.7023 2.12121 60.7621V58.3333L13.9682 46.4439L14.0848 46.3167H2.12121V41.7773H28.2439V67.8788H23.7152V55.9258L23.5455 56.0955L16.747 62.8939L11.7515 67.8788H9.23788C9.01869 67.8788 8.79596 67.8788 8.5697 67.8788H8.61212ZM60.8045 67.8788H58.3333L46.5182 56.0955L46.3485 55.9364V67.8788H41.8091V41.7879H67.8788V46.3273H56.0424L67.8788 58.1636V60.7621C67.8788 60.9884 67.8788 61.2111 67.8788 61.4303L52.8606 46.4439C52.8228 46.4002 52.7753 46.366 52.7219 46.3439C52.6685 46.3218 52.6107 46.3125 52.553 46.3167H46.4333L65.853 65.7576C65.189 66.4331 64.3964 66.9687 63.5221 67.333C62.6478 67.6974 61.7093 67.8829 60.7621 67.8788H60.8045Z" fill="#F05423"/>
</svg>
