<svg width="70" height="70" viewBox="0 0 70 70" fill="none" xmlns="http://www.w3.org/2000/svg">
<path d="M44.017 30.5939V8.34788C44.017 8.26233 44.0139 8.17522 44.0076 8.08966C44.9176 7.93411 45.6122 7.13922 45.6122 6.18488C45.6122 5.12011 44.745 4.25366 43.6802 4.25366H29.2314C28.1666 4.25366 27.2994 5.12011 27.2994 6.18488C27.2994 7.14 27.9947 7.93411 28.9047 8.08966C28.8993 8.17522 28.8962 8.26233 28.8962 8.34788V30.5853L12.5846 55.0962C11.3355 56.9745 11.2196 59.3756 12.286 61.3636C13.3507 63.3516 15.4134 64.5874 17.6682 64.5874H55.2434C58.6104 64.5874 61.3505 61.8481 61.3505 58.4796C61.3505 57.1713 60.9469 55.9315 60.1846 54.8924L44.017 30.5939ZM55.2434 62.9067H17.6682C16.0333 62.9067 14.5384 62.0107 13.7661 60.5702C12.9937 59.1282 13.0777 57.3883 13.9831 56.0264L30.5186 31.178C30.5552 31.1228 30.5754 31.059 30.5754 30.9913V8.34788C30.5754 8.08577 30.6244 7.83377 30.7216 7.59655L30.9993 6.92144C31.0211 6.87555 31.0335 6.82577 31.0335 6.77366C31.0335 6.58855 30.8842 6.43766 30.6983 6.43766H29.2306C29.0914 6.43766 28.9786 6.32411 28.9786 6.18488C28.9786 6.04644 29.0914 5.93366 29.2306 5.93366H43.6802C43.8202 5.93366 43.9322 6.04722 43.9322 6.18488C43.9322 6.32488 43.8194 6.43766 43.6802 6.43766H42.2141C42.1013 6.43766 41.9971 6.49366 41.9356 6.58622C41.8734 6.67955 41.8602 6.797 41.9037 6.90122L42.19 7.59655C42.2872 7.83377 42.3362 8.08577 42.3362 8.34788V31.0007C42.3362 31.0668 42.3549 31.1306 42.3922 31.1858L58.8064 55.8538C59.3742 56.6277 59.669 57.5314 59.669 58.4788C59.6705 60.921 57.6841 62.9067 55.2434 62.9067Z" fill="#F05423"/>
<path d="M35.8377 34.3599C35.9373 34.3599 36.036 34.3669 36.1348 34.3746C36.4568 35.2636 37.3061 35.8983 38.304 35.8983C38.4495 35.8983 38.5895 35.8828 38.7279 35.8579C39.137 36.4358 39.3813 37.1389 39.3813 37.9034C39.3813 39.8595 37.7938 41.4454 35.8377 41.4454C33.8808 41.4454 32.2949 39.8595 32.2949 37.9034C32.2949 35.9458 33.8816 34.3599 35.8377 34.3599Z" fill="#F05423"/>
<path d="M36.1349 34.3738C36.0455 34.1288 35.9941 33.8643 35.9941 33.5867C35.9941 32.3103 37.0286 31.2759 38.3041 31.2759C39.5805 31.2759 40.6149 32.3103 40.6149 33.5867C40.6149 34.7175 39.8014 35.6579 38.728 35.857C38.14 35.0271 37.2059 34.464 36.1349 34.3738Z" fill="#F05423"/>
<path d="M36.4556 16.7882C37.136 16.7882 37.6876 16.2366 37.6876 15.5562C37.6876 14.8758 37.136 14.3242 36.4556 14.3242C35.7752 14.3242 35.2236 14.8758 35.2236 15.5562C35.2236 16.2366 35.7752 16.7882 36.4556 16.7882Z" fill="#F05423"/>
<path d="M36.4554 23.3473C37.4339 23.3473 38.2271 22.554 38.2271 21.5755C38.2271 20.597 37.4339 19.8037 36.4554 19.8037C35.4768 19.8037 34.6836 20.597 34.6836 21.5755C34.6836 22.554 35.4768 23.3473 36.4554 23.3473Z" fill="#F05423"/>
<path d="M15.3364 57.8878C15.3364 60.1254 17.1564 61.9462 19.3941 61.9462H53.8411C55.3406 61.9462 56.7103 61.1257 57.4189 59.8042C58.1266 58.4835 58.0504 56.8875 57.2198 55.64L49.8628 44.5847C48.5576 45.0778 47.3529 45.8672 46.1403 46.5361C46.0944 46.5602 46.0501 46.582 46.0058 46.6061C46.2811 47.1373 46.439 47.7385 46.439 48.3771C46.439 50.5043 44.7146 52.2279 42.5882 52.2279C40.4618 52.2279 38.7374 50.5043 38.7374 48.3771C38.7374 48.3693 38.739 48.3608 38.739 48.3522C37.7092 48.3094 36.653 48.1578 35.5586 47.8941C31.6153 46.9429 27.8944 44.9401 24.1066 43.4888L16.1266 55.4805C15.6063 56.1907 15.3364 57.019 15.3364 57.8878ZM29.6499 53.4614C29.6499 52.0155 30.822 50.8434 32.2686 50.8434C33.7145 50.8434 34.8874 52.0155 34.8874 53.4614C34.8874 54.9073 33.7153 56.0802 32.2686 56.0802C30.822 56.081 29.6499 54.9081 29.6499 53.4614Z" fill="#F05423"/>
<path d="M38.7388 48.3515C38.7528 46.2359 40.4709 44.5264 42.588 44.5264C44.0751 44.5264 45.3631 45.371 46.0063 46.6054C43.6084 47.8957 41.2479 48.4573 38.7388 48.3515Z" fill="#F05423"/>
</svg>
