<svg width="70" height="70" viewBox="0 0 70 70" fill="none" xmlns="http://www.w3.org/2000/svg">
<g clip-path="url(#clip0_5429_95829)">
<path fill-rule="evenodd" clip-rule="evenodd" d="M61.5373 34.9042C63.6268 32.8905 65.4029 30.9726 66.7611 29.0548C69.3731 29.1507 70.9402 26.274 69.2686 24.3562C73.7611 11.6987 56.6268 12.3699 47.9552 14.2877C41.6865 -4.79447 28.3134 -4.79447 22.1492 14.2877C19.8507 13.8083 17.6567 13.4247 15.5671 13.2329C14.4178 11.0274 11.179 11.0274 9.92531 13.2329C-6.26872 14.5754 0.626804 27.5206 8.46262 34.9042C-7.62693 50.0548 0.522325 60.3151 22.0447 55.5206C22.4626 56.7672 22.8805 57.9179 23.4029 58.9726C22.7761 59.548 22.2537 60.3151 22.2537 61.1781C22.2537 63 24.0298 64.3425 26.0149 63.959C34.9999 77.3836 44.5074 65.8768 47.9552 55.5206C69.582 60.3151 77.6268 50.0548 61.5373 34.9042ZM42.5223 35C42.5223 31.2603 39.179 28.1918 34.9999 28.1918C30.9253 28.1918 27.582 31.2603 27.582 35C27.582 38.8357 30.9253 41.9042 34.9999 41.9042C39.179 41.9042 42.5223 38.8357 42.5223 35ZM66.2387 23.3014C64.0447 23.685 62.9999 25.6987 64.0447 27.5206C62.791 29.2466 61.2238 31.0685 59.3432 32.8905C56.7313 30.685 53.7014 28.4795 50.4626 26.3699C50.0447 23.0137 49.5223 19.9453 48.791 17.0685C54.4328 15.822 69.582 13.8083 66.2387 23.3014ZM34.9999 48.2329C30.7164 46.3151 26.5373 44.2055 22.5671 41.8083C22.1492 37.2055 22.1492 32.6028 22.5671 28C26.6417 25.6028 30.6119 23.4932 34.9999 21.6713C39.388 23.4932 43.4626 25.6028 47.4328 28C47.8507 32.6028 47.8507 37.2055 47.4328 41.8083C43.4626 44.2055 39.388 46.3151 34.9999 48.2329ZM46.9104 45.548C46.597 47.8494 46.179 49.959 45.6567 51.9726C43.4626 51.3014 41.2686 50.6302 38.8656 49.7672C41.582 48.4247 44.2984 47.0822 46.9104 45.548ZM31.1343 49.7672C28.8358 50.6302 26.5373 51.3014 24.3432 51.9726C23.8208 49.8631 23.4029 47.7535 23.0895 45.548C25.7014 47.0822 28.4179 48.4247 31.1343 49.7672ZM19.2238 39.6987C16.9253 38.0685 14.8358 36.5343 12.9552 34.9042C14.8358 33.274 16.9253 31.7398 19.2238 30.1096C19.1193 33.3699 19.1193 36.4384 19.2238 39.6987ZM23.0895 24.2603C23.4029 21.959 23.8208 19.8494 24.3432 17.8357C26.5373 18.5069 28.8358 19.1781 31.1343 20.0411C28.4179 21.3836 25.7014 22.7261 23.0895 24.2603ZM38.8656 20.137C41.2686 19.1781 43.4626 18.5069 45.6567 17.8357C46.179 19.8494 46.597 21.959 46.9104 24.2603C44.2984 22.7261 41.6865 21.3836 38.8656 20.137ZM50.7761 30.1096C53.0746 31.7398 55.1641 33.274 57.0447 34.9042C55.1641 36.5343 53.0746 38.0685 50.7761 39.6028C50.985 36.4384 50.985 33.3699 50.7761 30.1096ZM44.8208 15.0548C41.6865 15.9179 38.3432 17.0685 34.9999 18.411C31.6567 17.0685 28.3134 15.9179 25.179 15.0548C30.5074 -1.15064 39.4925 -1.15064 44.8208 15.0548ZM10.1343 16.0137C11.388 17.8357 13.9999 17.8357 15.3581 16.1096C17.2387 16.3014 19.2238 16.5891 21.3134 17.0685C20.4776 19.9453 19.9552 23.0137 19.6417 26.3699C16.2984 28.4795 13.2686 30.685 10.6567 32.8905C5.43277 27.9042 -2.82096 17.1644 10.1343 16.0137ZM10.6567 36.9179C13.2686 39.1233 16.2984 41.3288 19.6417 43.4384C19.9552 46.6987 20.4776 49.7672 21.3134 52.6439C3.13427 56.6713 -3.13439 49.959 10.6567 36.9179ZM28.4179 62.0411C28.9402 60.5069 28.2089 58.9726 26.5373 58.3973C26.0149 57.3425 25.597 56.0959 25.179 54.7535C28.3134 53.8905 31.6567 52.8357 34.9999 51.3973C38.4477 52.8357 41.6865 53.8905 44.8208 54.7535C42.2089 62.6165 35.7313 73.4521 28.4179 62.0411ZM48.791 52.6439C49.5223 49.8631 50.0447 46.6987 50.4626 43.4384C53.7014 41.3288 56.7313 39.1233 59.3432 36.9179C73.1343 49.959 66.9701 56.6713 48.791 52.6439Z" fill="#F05323"/>
</g>
<defs>
<clipPath id="clip0_5429_95829">
<rect width="70" height="70" fill="white"/>
</clipPath>
</defs>
</svg>
