<svg width="70" height="70" viewBox="0 0 70 70" fill="none" xmlns="http://www.w3.org/2000/svg">
<path fill-rule="evenodd" clip-rule="evenodd" d="M29.379 10.0968C28.4074 9.91905 27.482 9.80005 26.6763 9.80005C27.2748 9.80005 28.2674 9.91905 29.379 10.0968ZM42.8911 9.80005C41.9146 9.80005 40.8625 9.93165 39.802 10.1311C40.9815 9.93165 42.1022 9.80005 42.8911 9.80005ZM10.6057 19.2521C11.081 19.2654 11.5773 19.2738 12.0911 19.2738C15.7353 19.2738 22.6968 15.8795 26.5153 15.8795C27.9538 15.8795 29.5484 16.121 30.9694 16.422V14.5852C29.5484 14.2842 27.9531 14.042 26.5153 14.042C22.6968 14.042 15.7353 17.4363 12.0911 17.4363C11.578 17.4363 11.0817 17.4279 10.6057 17.4111V19.2521ZM5.5153 22.9817C7.2037 23.2785 9.3968 23.5165 12.0911 23.5165C15.7353 23.5165 22.6968 20.1222 26.5153 20.1222C27.9538 20.1222 29.5484 20.3637 30.9694 20.6654V18.8279C29.5484 18.5269 27.9531 18.2854 26.5153 18.2854C22.6968 18.2854 15.7353 21.679 12.0911 21.679C9.3968 21.679 7.2037 21.4417 5.5153 21.1449V22.9817ZM5.5153 27.2237C7.2037 27.5205 9.3968 27.7585 12.0911 27.7585C15.7353 27.7585 22.6968 24.3642 26.5153 24.3642C27.9538 24.3642 29.5484 24.6057 30.9694 24.9074V23.0699C29.5484 22.7689 27.9531 22.5274 26.5153 22.5274C22.6968 22.5274 15.7353 25.921 12.0911 25.921C9.3968 25.921 7.2037 25.6837 5.5153 25.3869V27.2237ZM5.5153 31.4664C7.2037 31.7632 9.3968 32.0012 12.0911 32.0012C15.7353 32.0012 22.6968 28.6069 26.5153 28.6069C27.9538 28.6069 29.5484 28.8491 30.9694 29.1502V27.3126C29.5484 27.0117 27.9531 26.7701 26.5153 26.7701C22.6968 26.7701 15.7353 30.1637 12.0911 30.1637C9.3968 30.1637 7.2037 29.9264 5.5153 29.6296V31.4664ZM5.5153 35.7084C7.2037 36.0052 9.3968 36.2432 12.0911 36.2432C15.7353 36.2432 22.6968 32.8496 26.5153 32.8496C27.9538 32.8496 29.5484 33.0918 30.9694 33.3928V31.5553C29.5484 31.2543 27.9531 31.0128 26.5153 31.0128C22.6968 31.0128 15.7353 34.4071 12.0911 34.4071C9.3968 34.4071 7.2037 34.1691 5.5153 33.8723V35.7084ZM22.0605 36.0857C18.5563 37.0923 14.56 38.6491 12.0911 38.6491C9.3968 38.6491 7.2037 38.4111 5.5153 38.1143V39.9504C7.2037 40.2472 9.3968 40.4852 12.0911 40.4852C14.56 40.4852 18.5563 38.9277 22.0605 37.9232V36.0857ZM5.5153 44.1931C7.2037 44.4899 9.3968 44.7279 12.0911 44.7279C15.7353 44.7279 22.6968 41.3343 26.5153 41.3343C27.9538 41.3343 29.5484 41.5765 30.9694 41.8769V40.0393C29.5484 39.7383 27.9531 39.4968 26.5153 39.4968C22.6968 39.4968 15.7353 42.8918 12.0911 42.8918C9.3968 42.8918 7.2037 42.6538 5.5153 42.357V44.1931ZM5.5153 48.4352C7.2037 48.7319 9.3968 48.9699 12.0911 48.9699C15.7353 48.9699 22.6968 45.5763 26.5153 45.5763C27.9538 45.5763 29.5484 45.8186 30.9694 46.1189V44.282C29.5484 43.981 27.9531 43.7395 26.5153 43.7395C22.6968 43.7395 15.7353 47.1345 12.0911 47.1345C9.3968 47.1345 7.2037 46.8965 5.5153 46.5997V48.4352ZM63.6363 18.739V16.9022C61.9479 17.199 59.7541 17.437 57.0605 17.437C53.4156 17.437 46.4541 14.0427 42.6363 14.0427C41.1978 14.0427 39.6032 14.2849 38.1815 14.5859V16.4227C39.6032 16.1217 41.1985 15.8802 42.6363 15.8802C46.4541 15.8802 53.4156 19.2745 57.0605 19.2745C59.7541 19.2738 61.9479 19.0358 63.6363 18.739ZM63.6363 22.9817V21.1449C61.9479 21.4417 59.7541 21.679 57.0605 21.679C53.4156 21.679 46.4541 18.2854 42.6363 18.2854C41.1978 18.2854 39.6032 18.5269 38.1815 18.8279V20.6654C39.6032 20.3637 41.1985 20.1222 42.6363 20.1222C46.4541 20.1222 53.4156 23.5165 57.0605 23.5165C59.7541 23.5158 61.9479 23.2785 63.6363 22.9817ZM63.6363 27.2237V25.3869C61.9479 25.6837 59.7541 25.921 57.0605 25.921C53.4156 25.921 46.4541 22.5274 42.6363 22.5274C41.1978 22.5274 39.6032 22.7689 38.1815 23.0699V24.9074C39.6032 24.6057 41.1985 24.3642 42.6363 24.3642C46.4541 24.3642 53.4156 27.7585 57.0605 27.7585C59.7541 27.7585 61.9479 27.5205 63.6363 27.2237ZM42.6363 26.7701V28.6069C46.4541 28.6069 53.4156 32.0012 57.0605 32.0012C59.7541 32.0012 61.9472 31.7639 63.6363 31.4664V29.6296C61.9479 29.9264 59.7541 30.1637 57.0605 30.1637C53.4163 30.1637 46.4541 26.7701 42.6363 26.7701ZM63.6363 35.7084V33.8716C61.9479 34.1684 59.7541 34.4064 57.0605 34.4064C53.4156 34.4064 46.4541 31.0121 42.6363 31.0121C41.1978 31.0121 39.6032 31.2536 38.1815 31.5546V33.3921C39.6032 33.0911 41.1985 32.8489 42.6363 32.8489C46.4541 32.8489 53.4156 36.2425 57.0605 36.2425C59.7541 36.2425 61.9479 36.0052 63.6363 35.7084ZM63.6363 39.9504V38.1143C61.9479 38.4111 59.7541 38.6491 57.0605 38.6491C53.4156 38.6491 46.4541 35.2548 42.6363 35.2548C41.1978 35.2548 39.6032 35.497 38.1815 35.7973V37.6348C39.6032 37.3338 41.1985 37.0923 42.6363 37.0923C46.4541 37.0923 53.4156 40.486 57.0605 40.486C59.7541 40.4853 61.9479 40.2472 63.6363 39.9504ZM63.6363 44.1931V42.357C61.9479 42.6538 59.7541 42.8918 57.0605 42.8918C53.4156 42.8918 46.4541 39.4968 42.6363 39.4968C41.1978 39.4968 39.6032 39.739 38.1815 40.0393V41.8769C39.6032 41.5758 41.1985 41.3343 42.6363 41.3343C46.4541 41.3343 53.4156 44.7279 57.0605 44.7279C59.7541 44.7272 61.9479 44.4899 63.6363 44.1931ZM51.7573 47.8541V46.018C48.5289 45.024 44.9862 43.7388 42.6363 43.7388C41.1978 43.7388 39.6032 43.981 38.1815 44.2813V46.1189C39.6032 45.8178 41.1985 45.5763 42.6363 45.5763C44.9869 45.5763 48.5289 46.8657 51.7573 47.8541ZM26.6763 9.80005C22.4336 9.80005 16.4948 13.1943 11.2931 13.1943C8.1116 13.1943 4.4037 12.6637 1.3237 11.6032V18.3274C0.5684 18.4926 0 19.1716 0 19.9815V59.0114C0 59.9494 0.7595 60.7082 1.6968 60.7082H28.8484C29.3153 60.7082 29.6968 60.3267 29.6968 59.8605L31.3936 60.7082H38.6057L40.3032 59.8605C40.3032 60.3267 40.6847 60.7082 41.1516 60.7082H68.3032C69.2405 60.7082 70 59.9494 70 59.0114V19.9815C70 19.0442 69.2405 18.2847 68.3032 18.2847H68.2521V11.6025C65.0699 12.663 61.3543 13.1936 58.2827 13.1936C57.9607 13.1936 56.4753 13.1936 55.7368 12.9815C54.0393 12.663 52.2326 12.1331 50.7479 11.6025C48.1005 10.8605 45.3425 9.80005 42.8995 9.80005H42.8911C42.1015 9.80005 40.9808 9.93165 39.802 10.1311C37.9106 10.4538 35.8652 10.9501 34.7921 11.3407C33.6931 10.9333 31.3558 10.416 29.379 10.0975C28.2674 9.91905 27.2748 9.80005 26.6763 9.80005ZM33.8884 12.4516V49.9968C32.4037 49.4663 28.4753 48.7243 26.5664 48.7243C22.3237 48.7243 15.8585 52.1192 11.2938 52.1192C8.4343 52.1192 5.2528 51.8007 2.597 50.8466V13.4064C5.3543 14.1491 8.7486 14.5733 11.5066 14.5733C15.9614 14.5733 22.6471 11.179 26.677 11.179C27.5254 11.179 28.5439 11.2973 29.5792 11.4716C31.0632 11.739 32.5479 12.1331 33.8884 12.4516ZM33.8884 51.3199V52.542C32.4037 52.0114 28.4753 51.2694 26.5664 51.2694C22.3237 51.2694 15.8585 54.6645 11.2938 54.6645C8.4343 54.6645 5.2528 54.346 2.597 53.3918V52.1612C5.495 52.9375 8.7528 53.4968 11.6165 53.4968C15.9614 53.4968 22.2229 50.1032 26.677 50.1032C29.0563 50.1032 31.2753 50.5779 33.8884 51.3199ZM33.8884 53.8657V55.0879C32.4037 54.5573 28.4753 53.8153 26.5664 53.8153C22.3237 53.8153 15.8585 57.2089 11.2938 57.2089C8.4343 57.2089 5.2528 56.8918 2.597 55.9378V54.7071C5.495 55.482 8.7528 56.0427 11.6165 56.0427C16.4955 56.0427 21.6881 52.6491 26.677 52.6491C29.0563 52.6491 31.2753 53.1237 33.8884 53.8657ZM57.9607 14.5726C60.6158 14.5726 64.8585 13.9363 66.9795 13.4057V50.8452C64.2215 51.8 61.04 52.1185 58.1728 52.1185C53.2931 52.1185 47.3543 48.7235 42.9002 48.7235C41.1012 48.7235 37.0706 49.4662 35.6881 49.9961V12.4516C37.0237 12.1331 38.479 11.7383 39.9259 11.4716C40.9395 11.2973 41.937 11.179 42.7812 11.179H42.7973C46.8272 11.179 53.5059 14.5726 57.9607 14.5726ZM66.9795 52.1528V53.3918C64.2222 54.346 61.0407 54.6645 58.1728 54.6645C53.2931 54.6645 47.3543 51.2694 42.9002 51.2694C41.1012 51.2694 37.0706 52.0121 35.6881 52.542V51.3115C38.2158 50.5729 40.4271 50.1025 42.7973 50.1025C47.2521 50.1025 53.5059 53.4961 57.9607 53.4961C60.739 53.4968 64.0059 52.9333 66.9795 52.1528ZM66.9795 54.6973V55.937C64.2222 56.8912 61.0407 57.2082 58.1728 57.2082C53.2931 57.2082 47.3543 53.8146 42.9002 53.8146C41.1012 53.8146 37.0706 54.5573 35.6881 55.0872V53.8567C38.2158 53.1181 40.4271 52.6477 42.7973 52.6477C47.7778 52.6477 53.081 56.0413 57.9607 56.0413C60.739 56.0427 64.0059 55.4778 66.9795 54.6973Z" fill="#F05423"/>
</svg>
