<svg width="70" height="70" viewBox="0 0 70 70" fill="none" xmlns="http://www.w3.org/2000/svg">
<path d="M9.1 3.5C5.99761 3.5 3.5 5.99349 3.5 9.1V33.6H20.3875C21.0575 26.6157 26.6136 21.0481 33.6 20.3875V3.5H9.1ZM36.4 3.5V20.3875C43.3864 21.0481 48.9425 26.6157 49.6125 33.6H66.5V9.1C66.5 5.99349 64.0024 3.5 60.9 3.5H36.4ZM18.0469 9.8C18.8291 9.714 19.6046 10.413 19.6 11.2V16.8H25.2C25.9396 16.7896 26.6199 17.4603 26.6199 18.2C26.6199 18.9397 25.9396 19.6105 25.2 19.6H19.6V25.2C19.6104 25.9396 18.9397 26.6199 18.2 26.6199C17.4603 26.6199 16.7895 25.9396 16.8 25.2V19.6H11.2C10.4604 19.6104 9.78006 18.9397 9.78006 18.2C9.78006 17.4603 10.4604 16.7895 11.2 16.8H16.8V11.2C16.7958 10.5153 17.3663 9.87493 18.0469 9.8ZM47.8406 12.2719L51.8 16.2312L55.7594 12.2719C56.4188 11.6898 57.0168 11.8897 57.6713 12.1867C58.3458 12.8058 58.0491 13.6582 57.75 14.2406L53.7906 18.2L57.75 22.1594C58.2711 22.6805 58.2711 23.6288 57.75 24.15C57.2289 24.6711 56.2805 24.6711 55.7594 24.15L51.8 20.1906L47.8406 24.15C47.3195 24.6711 46.3711 24.6711 45.85 24.15C45.3289 23.6288 45.3289 22.6805 45.85 22.1594L49.8094 18.2L45.85 14.2406C45.2722 13.3834 45.3875 12.8115 45.9555 12.1352C46.6884 11.6585 47.171 11.8754 47.8406 12.2719ZM35 23.1C28.4114 23.1 23.1 28.4113 23.1 35C23.1 41.5886 28.4114 46.9 35 46.9C41.5886 46.9 46.9 41.5886 46.9 35C46.9 28.4113 41.5886 23.1 35 23.1ZM27.8687 31.5C32.5672 31.4998 37.2923 31.5 42 31.5C42.7396 31.4896 43.4199 32.1603 43.4199 32.9C43.4199 33.6397 42.7396 34.3104 42 34.3H28C27.2669 34.3343 26.5685 33.6988 26.5341 32.9656C26.4997 32.2325 27.1356 31.5342 27.8687 31.5ZM27.8687 35.7C32.5672 35.6997 37.2923 35.7 42 35.7C42.7396 35.6895 43.4199 36.3602 43.4199 37.1C43.4199 37.8397 42.7396 38.5104 42 38.5H28C27.2669 38.5343 26.5685 37.8988 26.5341 37.1657C26.4997 36.4325 27.1356 35.7342 27.8687 35.7ZM3.5 36.4V60.9C3.5 64.0065 5.99761 66.5 9.1 66.5H33.6V49.6343C26.6062 48.974 21.048 43.3937 20.3875 36.4H3.5ZM49.6125 36.4C48.952 43.3937 43.3938 48.974 36.4 49.6343V66.5H60.9C64.0024 66.5 66.5 64.0065 66.5 60.9V36.4H49.6125ZM51.8 46.9C52.5732 46.9 53.2 47.5268 53.2 48.3C53.2 49.0732 52.5732 49.7 51.8 49.7C51.0268 49.7 50.4 49.0732 50.4 48.3C50.4 47.5268 51.0268 46.9 51.8 46.9ZM11.0687 50.4C15.7672 50.3998 20.4923 50.4 25.2 50.4C25.9396 50.3895 26.6199 51.0603 26.6199 51.8C26.6199 52.5397 25.9396 53.2104 25.2 53.2H11.2C10.4669 53.2343 9.76846 52.5988 9.7341 51.8657C9.69973 51.1325 10.3356 50.4342 11.0687 50.4ZM44.6688 50.4C49.3672 50.3998 54.0923 50.4 58.8 50.4C59.5396 50.3895 60.2199 51.0603 60.2199 51.8C60.2199 52.5397 59.5396 53.2104 58.8 53.2H44.8C44.0669 53.2343 43.3685 52.5988 43.3341 51.8657C43.2997 51.1325 43.9356 50.4342 44.6688 50.4ZM51.8 53.9C52.5732 53.9 53.2 54.5268 53.2 55.3C53.2 56.0732 52.5732 56.7 51.8 56.7C51.0268 56.7 50.4 56.0732 50.4 55.3C50.4 54.5268 51.0268 53.9 51.8 53.9Z" fill="#F05423"/>
</svg>
