<svg width="56" height="47" viewBox="0 0 56 47" fill="none" xmlns="http://www.w3.org/2000/svg">
<path d="M43.3032 0.250614C47.0664 0.250614 50.0769 1.63043 52.3348 4.39008C54.5091 7.23335 55.5962 10.5784 55.5962 14.4252C55.5962 17.6029 55.0108 20.5716 53.8401 23.3313C52.6693 26.0909 51.2058 28.5997 49.4497 30.8576C47.6099 33.1155 45.6866 35.0807 43.6795 36.7532C41.5889 38.5093 39.6655 39.9728 37.9094 41.1435C36.1532 42.3979 34.7316 43.3178 33.6445 43.9032C32.4737 44.4886 31.9301 44.7813 32.0138 44.7813L29.1287 40.8927C29.8813 40.5582 30.8848 39.8892 32.1392 38.8857C33.3936 37.9658 34.648 36.8368 35.9024 35.4988C37.0731 34.1608 38.1184 32.6974 39.0383 31.1085C39.9582 29.6032 40.4181 28.1398 40.4181 26.7181C40.4181 25.8819 39.9164 25.0456 38.9129 24.2094C37.9094 23.4567 36.8222 22.5368 35.6515 21.4497C34.4807 20.4462 33.3936 19.1918 32.3901 17.6866C31.3866 16.2649 30.8848 14.5088 30.8848 12.4181C30.8848 10.5784 31.2611 8.90587 32.0138 7.40061C32.6828 5.89534 33.6026 4.59915 34.7734 3.51201C35.8605 2.50851 37.1567 1.71406 38.662 1.12868C40.1673 0.543303 41.7143 0.250614 43.3032 0.250614ZM12.4454 -0.000261566C14.3688 -0.000261734 16.1249 0.417867 17.7138 1.25412C19.3027 2.09038 20.6825 3.21933 21.8532 4.64096C23.024 6.0626 23.9439 7.6933 24.6129 9.53306C25.1983 11.4564 25.491 13.5053 25.491 15.6795C25.491 20.0281 24.5711 24.0421 22.7313 27.7216C20.8079 31.4848 18.7173 34.7044 16.4594 37.3804C13.7834 40.5582 10.731 43.4433 7.30239 46.0356L3.66468 42.6488C4.41731 42.1471 5.33718 41.3526 6.42432 40.2655C7.42783 39.1783 8.38952 37.8821 9.30941 36.3769C10.1457 34.9553 10.8983 33.45 11.5673 31.8611C12.1527 30.2722 12.4454 28.7251 12.4454 27.2199C12.4454 26.2164 11.8182 25.3801 10.5638 24.7111C9.3094 24.0421 7.92958 23.2059 6.42432 22.2023C4.91906 21.1988 3.53923 19.9026 2.28485 18.3138C1.03046 16.8085 0.403274 14.676 0.403273 11.9164C0.403273 10.2439 0.737775 8.69681 1.40678 7.27517C2.07578 5.85353 2.99566 4.59915 4.16642 3.51202C5.25356 2.42488 6.54976 1.54681 8.05502 0.87781C9.47665 0.29243 10.9401 -0.000261434 12.4454 -0.000261566Z" fill="#F05323"/>
</svg>
