<svg width="34" height="34" viewBox="0 0 34 34" fill="none" xmlns="http://www.w3.org/2000/svg">
<g clip-path="url(#clip0_3534_20900)">
<path d="M33.3333 16.6667C33.3333 25.8715 25.8715 33.3333 16.6667 33.3333C7.4618 33.3333 0 25.8715 0 16.6667C0 7.4618 7.4618 0 16.6667 0C25.8715 0 33.3333 7.4618 33.3333 16.6667Z" fill="#4A7AFF"/>
<path d="M17.3986 33.3165C26.264 32.9337 33.3339 25.6263 33.3339 16.6668C33.3339 16.602 33.3321 16.5374 33.3313 16.4725L21.7624 4.90332L9.39258 17.8326L16.2654 24.7054L13.0964 29.0142L17.3986 33.3165Z" fill="#0053BF"/>
<path d="M21.7626 4.90299V8.677C21.7626 8.677 17.4296 8.04808 17.4296 10.8435V13.6389H21.3433L20.8542 17.902H17.4296V29.0139H13.0966V17.902L9.39258 17.832V13.6389H13.0267V10.4241C13.0267 10.4241 12.7869 5.64177 17.4996 4.76338C19.4565 4.39844 21.7626 4.90299 21.7626 4.90299Z" fill="white"/>
<path d="M21.7609 8.677V4.90299C21.7609 4.90299 19.4548 4.39844 17.4978 4.76338C17.1921 4.82034 16.9078 4.89409 16.6426 4.98132V29.0139H17.4279V17.902H20.8522L21.3415 13.6389H17.4279C17.4279 13.6389 17.4279 13.6389 17.4279 10.8435C17.4279 8.04808 21.7609 8.677 21.7609 8.677Z" fill="#DCE1EB"/>
</g>
<defs>
<clipPath id="clip0_3534_20900">
<rect width="33.3333" height="33.3333" fill="white"/>
</clipPath>
</defs>
</svg>
