<svg width="26" height="26" viewBox="0 0 26 26" fill="none" xmlns="http://www.w3.org/2000/svg">
<g clip-path="url(#clip0_1901_22387)">
<path fill-rule="evenodd" clip-rule="evenodd" d="M19.3418 25.125H6.7793C5.11343 25.1249 3.51581 24.4631 2.33786 23.2852C1.15992 22.1072 0.49812 20.5096 0.498047 18.8438L0.498047 6.28125C0.49812 4.61538 1.15992 3.01776 2.33786 1.83982C3.51581 0.661869 5.11343 7.2877e-05 6.7793 0L19.3418 0C21.0077 0 22.6053 0.661773 23.7833 1.83974C24.9613 3.0177 25.623 4.61536 25.623 6.28125V18.8438C25.623 20.5096 24.9613 22.1073 23.7833 23.2853C22.6053 24.4632 21.0077 25.125 19.3418 25.125Z" fill="#2D0F1E"/>
<path fill-rule="evenodd" clip-rule="evenodd" d="M12.2754 7.06641H19.3418C20.2476 7.06635 21.1188 6.71845 21.7754 6.09454C22.4321 5.47064 22.824 4.61839 22.8704 3.71379C22.9167 2.80919 22.6139 1.92134 22.0245 1.23358C21.4351 0.545829 20.604 0.1107 19.703 0.0180586C19.5828 0.0113848 19.4639 0 19.3418 0H6.7793C5.11343 7.2877e-05 3.51581 0.661869 2.33786 1.83982C1.15992 3.01776 0.49812 4.61538 0.498047 6.28125L0.498047 18.8438C0.49812 15.7202 1.73897 12.7247 3.94763 10.516C6.1563 8.30733 9.15187 7.06648 12.2754 7.06641Z" fill="#501432"/>
<path fill-rule="evenodd" clip-rule="evenodd" d="M19.3418 12.5625C18.0995 12.5625 16.8851 12.9309 15.8521 13.6211C14.8192 14.3113 14.0141 15.2923 13.5387 16.44C13.0633 17.5878 12.9389 18.8507 13.1812 20.0692C13.4236 21.2876 14.0218 22.4068 14.9003 23.2853C15.7787 24.1637 16.8979 24.7619 18.1164 25.0043C19.3348 25.2467 20.5978 25.1223 21.7455 24.6469C22.8933 24.1715 23.8743 23.3664 24.5645 22.3334C25.2547 21.3005 25.623 20.0861 25.623 18.8438V6.28125C25.623 7.94714 24.9613 9.5448 23.7833 10.7228C22.6054 11.9007 21.0077 12.5625 19.3418 12.5625Z" fill="black"/>
<path fill-rule="evenodd" clip-rule="evenodd" d="M13.8452 5.49609C13.8451 5.39298 13.8654 5.29086 13.9049 5.19559C13.9443 5.10032 14.0021 5.01375 14.0751 4.94084C14.148 4.86792 14.2345 4.81009 14.3298 4.77064C14.4251 4.73119 14.5272 4.71091 14.6303 4.71094H16.2905C16.4721 4.71097 16.648 4.77394 16.7884 4.88911C16.9288 5.00428 17.0249 5.16453 17.0604 5.3426C17.2025 6.05084 17.5856 6.68794 18.1447 7.14541C18.7037 7.60288 19.404 7.85243 20.1264 7.85156C20.2295 7.85153 20.3316 7.87182 20.4269 7.91127C20.5222 7.95071 20.6088 8.00855 20.6817 8.08146C20.7546 8.15438 20.8124 8.24094 20.8519 8.33622C20.8913 8.43149 20.9116 8.5336 20.9116 8.63672V10.207C20.9116 10.3101 20.8913 10.4123 20.8519 10.5075C20.8124 10.6028 20.7546 10.6894 20.6817 10.7623C20.6088 10.8352 20.5222 10.893 20.4269 10.9325C20.3316 10.9719 20.2295 10.9922 20.1264 10.9922C19.0236 10.9938 17.9401 10.7035 16.9858 10.1509V16.4883C16.9857 17.5752 16.6634 18.6378 16.0595 19.5415C15.4555 20.4452 14.5972 21.1496 13.593 21.5655C12.5888 21.9815 11.4838 22.0903 10.4177 21.8782C9.35165 21.6661 8.37242 21.1427 7.60383 20.3741C6.83524 19.6056 6.31182 18.6263 6.09976 17.5603C5.88769 16.4942 5.9965 15.3892 6.41243 14.385C6.82837 13.3808 7.53274 12.5224 8.43648 11.9185C9.34022 11.3146 10.4027 10.9922 11.4897 10.9922C11.5928 10.9922 11.6949 11.0124 11.7902 11.0519C11.8855 11.0913 11.972 11.1492 12.0449 11.2221C12.1179 11.295 12.1757 11.3816 12.2151 11.4768C12.2546 11.5721 12.2749 11.6742 12.2748 11.7773V13.3477C12.2749 13.4508 12.2546 13.5529 12.2151 13.6482C12.1757 13.7434 12.1179 13.83 12.0449 13.9029C11.972 13.9758 11.8855 14.0337 11.7902 14.0731C11.6949 14.1126 11.5928 14.1328 11.4897 14.1328C11.0238 14.1328 10.5683 14.2709 10.1809 14.5297C9.79346 14.7886 9.4915 15.1565 9.31318 15.5869C9.13486 16.0174 9.08819 16.491 9.17908 16.948C9.26997 17.405 9.49433 17.8247 9.82378 18.1542C10.1532 18.4836 10.573 18.708 11.03 18.7989C11.4869 18.8898 11.9606 18.8431 12.3911 18.6648C12.8215 18.4865 13.1894 18.1845 13.4482 17.7971C13.7071 17.4097 13.8452 16.9542 13.8452 16.4883V5.49609Z" fill="#FE2C55"/>
<path fill-rule="evenodd" clip-rule="evenodd" d="M13.06 4.71094C13.06 4.60782 13.0803 4.50571 13.1197 4.41043C13.1591 4.31516 13.217 4.22859 13.2899 4.15568C13.3628 4.08276 13.4494 4.02493 13.5447 3.98548C13.6399 3.94604 13.742 3.92575 13.8452 3.92578H15.5054C15.6869 3.92582 15.8629 3.98878 16.0032 4.10395C16.1436 4.21912 16.2397 4.37938 16.2752 4.55744C16.4173 5.26569 16.8005 5.90279 17.3595 6.36026C17.9186 6.81772 18.6189 7.06727 19.3413 7.06641C19.4444 7.06638 19.5465 7.08666 19.6418 7.12611C19.737 7.16556 19.8236 7.22339 19.8965 7.2963C19.9694 7.36922 20.0273 7.45579 20.0667 7.55106C20.1061 7.64633 20.1264 7.74845 20.1264 7.85156V9.42188C20.1264 9.52499 20.1061 9.62711 20.0667 9.72238C20.0273 9.81765 19.9694 9.90422 19.8965 9.97713C19.8236 10.05 19.737 10.1079 19.6418 10.1473C19.5465 10.1868 19.4444 10.2071 19.3413 10.207C18.2385 10.2086 17.1549 9.91839 16.2006 9.36574V15.7031C16.2006 16.7901 15.8782 17.8526 15.2743 18.7563C14.6704 19.6601 13.8121 20.3644 12.8078 20.7804C11.8036 21.1963 10.6986 21.3051 9.63256 21.0931C8.5665 20.881 7.58726 20.3576 6.81867 19.589C6.05009 18.8204 5.52667 17.8412 5.3146 16.7751C5.10253 15.709 5.21135 14.604 5.62728 13.5998C6.04321 12.5956 6.74758 11.7373 7.65132 11.1334C8.55506 10.5294 9.61758 10.2071 10.7045 10.207C10.8076 10.207 10.9098 10.2273 11.005 10.2667C11.1003 10.3062 11.1869 10.364 11.2598 10.4369C11.3327 10.5098 11.3905 10.5964 11.43 10.6917C11.4694 10.787 11.4897 10.8891 11.4897 10.9922V12.5625C11.4897 12.6656 11.4694 12.7677 11.43 12.863C11.3905 12.9583 11.3327 13.0448 11.2598 13.1178C11.1869 13.1907 11.1003 13.2485 11.005 13.288C10.9098 13.3274 10.8076 13.3477 10.7045 13.3477C10.2386 13.3476 9.78314 13.4857 9.39572 13.7446C9.0083 14.0034 8.70634 14.3713 8.52802 14.8018C8.3497 15.2322 8.30304 15.7059 8.39392 16.1628C8.48481 16.6198 8.70917 17.0396 9.03863 17.369C9.36809 17.6985 9.78784 17.9228 10.2448 18.0137C10.7018 18.1046 11.1754 18.058 11.6059 17.8796C12.0363 17.7013 12.4043 17.3994 12.6631 17.0119C12.9219 16.6245 13.06 16.169 13.06 15.7031V4.71094Z" fill="#25F4EE"/>
<path fill-rule="evenodd" clip-rule="evenodd" d="M9.47846 17.7147C9.7459 18.1534 10.1494 18.4926 10.6275 18.6807C11.1056 18.8687 11.6321 18.8953 12.1268 18.7564C12.6214 18.6175 13.057 18.3207 13.3673 17.9112C13.6776 17.5018 13.8456 17.0021 13.8455 16.4883V5.49609C13.8455 5.39298 13.8658 5.29086 13.9052 5.19559C13.9447 5.10032 14.0025 5.01375 14.0754 4.94084C14.1483 4.86792 14.2349 4.81009 14.3302 4.77064C14.4254 4.73119 14.5275 4.71091 14.6307 4.71094H16.2909C16.2975 4.71094 16.3038 4.71094 16.3101 4.71133C16.4947 5.44105 16.9372 6.07931 17.5558 6.50816C17.8438 6.92327 18.2281 7.26235 18.6759 7.49632C19.1237 7.7303 19.6215 7.8522 20.1268 7.85156V9.42188C20.1268 9.52499 20.1065 9.62711 20.0671 9.72238C20.0276 9.81765 19.9698 9.90422 19.8969 9.97713C19.8239 10.05 19.7374 10.1079 19.6421 10.1473C19.5468 10.1868 19.4447 10.2071 19.3416 10.207C18.2388 10.2086 17.1553 9.91839 16.201 9.36574V15.7031C16.201 16.7428 15.9061 17.7612 15.3505 18.6401C14.7949 19.5189 14.0015 20.2221 13.0623 20.6681C12.123 21.114 11.0766 21.2844 10.0444 21.1595C9.01221 21.0345 8.03664 20.6194 7.23095 19.9622C6.57389 19.1565 6.15883 18.1809 6.03394 17.1488C5.90906 16.1166 6.07947 15.0702 6.52541 14.1311C6.97134 13.1919 7.67451 12.3984 8.55327 11.8428C9.43204 11.2872 10.4504 10.9923 11.49 10.9922V12.5625C11.4901 12.6656 11.4698 12.7677 11.4303 12.863C11.3909 12.9583 11.3331 13.0448 11.2601 13.1178C11.1872 13.1907 11.1007 13.2485 11.0054 13.288C10.9101 13.3274 10.808 13.3477 10.7049 13.3477C10.1912 13.3477 9.69156 13.5157 9.28217 13.826C8.87277 14.1363 8.57602 14.5719 8.43713 15.0665C8.29824 15.5611 8.32481 16.0875 8.5128 16.5656C8.70079 17.0437 9.0399 17.4472 9.47846 17.7147Z" fill="white"/>
</g>
<defs>
<clipPath id="clip0_1901_22387">
<rect width="25.125" height="25.125" fill="white" transform="translate(0.498047)"/>
</clipPath>
</defs>
</svg>
