<svg width="26" height="25" viewBox="0 0 26 25" fill="none" xmlns="http://www.w3.org/2000/svg">
<g clip-path="url(#clip0_1901_22381)">
<path d="M23.5441 0H2.70199C1.62286 0 0.748047 0.874812 0.748047 1.95395V22.7961C0.748047 23.8752 1.62286 24.75 2.70199 24.75H23.5441C24.6232 24.75 25.498 23.8752 25.498 22.7961V1.95395C25.498 0.874812 24.6232 0 23.5441 0Z" fill="#FF0000"/>
<path d="M17.1721 7.71875H9.07298C8.74932 7.71875 8.42883 7.78253 8.12982 7.90644C7.83082 8.03035 7.55916 8.21196 7.33037 8.4409C7.10158 8.66984 6.92015 8.94161 6.79644 9.2407C6.67273 9.53979 6.60916 9.86032 6.60938 10.184V14.5641C6.60916 14.8877 6.67273 15.2083 6.79644 15.5074C6.92015 15.8064 7.10158 16.0782 7.33037 16.3072C7.55916 16.5361 7.83082 16.7177 8.12982 16.8416C8.42883 16.9655 8.74932 17.0293 9.07298 17.0293H17.1721C17.4958 17.0293 17.8162 16.9655 18.1152 16.8416C18.4142 16.7177 18.6859 16.5361 18.9147 16.3072C19.1435 16.0782 19.3249 15.8064 19.4486 15.5074C19.5723 15.2083 19.6359 14.8877 19.6357 14.5641V10.184C19.6359 9.86032 19.5723 9.53979 19.4486 9.2407C19.3249 8.94161 19.1435 8.66984 18.9147 8.4409C18.6859 8.21196 18.4142 8.03035 18.1152 7.90644C17.8162 7.78253 17.4958 7.71875 17.1721 7.71875ZM11.4063 14.3703V10.3777L14.8388 12.374L11.4063 14.3703Z" fill="white"/>
</g>
<defs>
<clipPath id="clip0_1901_22381">
<rect width="24.75" height="24.75" fill="white" transform="translate(0.748047)"/>
</clipPath>
</defs>
</svg>
