<svg width="34" height="34" viewBox="0 0 34 34" fill="none" xmlns="http://www.w3.org/2000/svg">
<g clip-path="url(#clip0_3534_20897)">
<path d="M2.63762 2.26813C0.018175 4.98897 0.554286 7.87924 0.554286 16.6598C0.554286 23.9515 -0.717936 31.2612 5.9404 32.982C8.01956 33.5167 26.4418 33.5167 28.5182 32.9792C31.2904 32.264 33.546 30.0154 33.8543 26.0945C33.8973 25.5473 33.8973 7.78202 33.8529 7.22369C33.5251 3.0473 30.9543 0.640356 27.5668 0.152856C26.7904 0.0403558 26.6348 0.00702244 22.6515 7.80001e-05C8.52234 0.00702244 5.42512 -0.622144 2.63762 2.26813Z" fill="url(#paint0_linear_3534_20897)"/>
<path d="M17.2188 4.35953C12.1757 4.35953 7.38681 3.91092 5.55764 8.60537C4.80209 10.5443 4.91181 13.0623 4.91181 16.6679C4.91181 19.8318 4.81042 22.8054 5.55764 24.729C7.38264 29.4262 12.2104 28.9762 17.216 28.9762C22.0451 28.9762 27.0243 29.479 28.8757 24.729C29.6326 22.7706 29.5215 20.2901 29.5215 16.6679C29.5215 11.8595 29.7868 8.75537 27.4549 6.42481C25.0938 4.0637 21.9007 4.35953 17.2132 4.35953H17.2188ZM16.116 6.57759C26.6354 6.56092 27.9743 5.39148 27.2354 21.6373C26.9729 27.3831 22.5979 26.7526 17.2201 26.7526C7.41458 26.7526 7.13264 26.472 7.13264 16.6623C7.13264 6.7387 7.91042 6.58315 16.116 6.57481V6.57759ZM23.7882 8.62065C22.9729 8.62065 22.3118 9.28176 22.3118 10.097C22.3118 10.9123 22.9729 11.5734 23.7882 11.5734C24.6035 11.5734 25.2646 10.9123 25.2646 10.097C25.2646 9.28176 24.6035 8.62065 23.7882 8.62065ZM17.2188 10.347C13.7285 10.347 10.8993 13.1776 10.8993 16.6679C10.8993 20.1581 13.7285 22.9873 17.2188 22.9873C20.709 22.9873 23.5368 20.1581 23.5368 16.6679C23.5368 13.1776 20.709 10.347 17.2188 10.347ZM17.2188 12.5651C22.6424 12.5651 22.6493 20.7706 17.2188 20.7706C11.7965 20.7706 11.7882 12.5651 17.2188 12.5651Z" fill="white"/>
</g>
<defs>
<linearGradient id="paint0_linear_3534_20897" x1="2.70154" y1="31.2044" x2="33.6813" y2="4.39171" gradientUnits="userSpaceOnUse">
<stop stop-color="#FFDD55"/>
<stop offset="0.5" stop-color="#FF543E"/>
<stop offset="1" stop-color="#C837AB"/>
</linearGradient>
<clipPath id="clip0_3534_20897">
<rect width="33.3333" height="33.3333" fill="white" transform="translate(0.554688)"/>
</clipPath>
</defs>
</svg>
