<svg width="34" height="34" viewBox="0 0 34 34" fill="none" xmlns="http://www.w3.org/2000/svg">
<g clip-path="url(#clip0_3534_20911)">
<path d="M28.0372 32.7627C20.9081 33.5236 13.7573 33.5236 6.62813 32.7627C3.78542 32.4593 1.54009 30.2139 1.23669 27.371C0.475789 20.2418 0.475789 13.0913 1.23669 5.96212C1.54009 3.11941 3.78542 0.874074 6.62813 0.570679C13.7573 -0.190226 20.9078 -0.190226 28.037 0.570679C30.8799 0.874074 33.1253 3.11941 33.4287 5.96212C34.1896 13.0913 34.1896 20.2418 33.4287 27.371C33.1253 30.2139 30.8802 32.4593 28.0372 32.7627Z" fill="url(#paint0_linear_3534_20911)"/>
<path d="M31.6154 7.16805C31.3463 4.64551 29.3541 2.65297 26.8313 2.38365C20.505 1.7087 14.1599 1.7087 7.83357 2.38365C5.31104 2.65297 3.3185 4.64551 3.04918 7.16805C2.37423 13.4943 2.37423 19.8395 3.04918 26.1655C3.3185 28.6883 5.31104 30.6808 7.83357 30.9499C14.1599 31.6251 20.505 31.6251 26.831 30.9499C29.3538 30.6808 31.3463 28.6883 31.6154 26.1655C32.2906 19.8395 32.2906 13.4943 31.6154 7.16805Z" fill="url(#paint1_linear_3534_20911)"/>
<path d="M1.16602 26.6802C1.1889 26.9106 1.21255 27.141 1.23722 27.3714C1.54062 30.2141 3.78595 32.4594 6.62892 32.7628C13.7581 33.5237 20.9086 33.5237 28.0378 32.7628C30.8807 32.4594 33.1258 30.2141 33.4292 27.3714C33.4539 27.141 33.4775 26.9106 33.5007 26.6802H1.16602Z" fill="url(#paint2_linear_3534_20911)"/>
<path d="M33.069 28.8785L11.5582 7.36743C11.0778 6.74055 10.322 6.33594 9.47131 6.33594C8.0202 6.33594 6.84375 7.51214 6.84375 8.96325C6.84375 9.81418 7.24862 10.57 7.8755 11.0501L29.3116 32.4864C31.0442 31.9099 32.4251 30.5786 33.069 28.8785Z" fill="url(#paint3_linear_3534_20911)"/>
<path d="M11.6778 13.314H7.26367V26.9975L13.5269 33.2608C18.3644 33.4439 23.2053 33.2783 28.0362 32.7626C28.8808 32.6725 29.672 32.4098 30.3759 32.0121L11.6778 13.314Z" fill="url(#paint4_linear_3534_20911)"/>
<path d="M26.6685 14.4602C25.8611 13.575 24.6986 13.0195 23.4064 13.0195C21.3625 13.0195 20.0434 13.7375 19.2583 14.404L18.3934 13.314H14.3262V26.9976L20.6082 33.2796C23.0857 33.199 25.5622 33.0266 28.0364 32.7626C30.8794 32.4592 33.1245 30.2139 33.4279 27.3712C33.6308 25.4704 33.7791 23.5682 33.8737 21.6654L26.6685 14.4602Z" fill="url(#paint5_linear_3534_20911)"/>
<path d="M7.26367 13.3145H11.6775V26.998H7.26367V13.3145Z" fill="white"/>
<path d="M23.4064 13.02C20.1718 13.02 18.751 14.8178 18.3934 15.365V13.3145H14.3262V26.9981H18.7403V20.1248C18.7403 18.1386 19.6545 16.5936 21.3887 16.5936C23.1226 16.5936 23.4064 18.5167 23.4064 20.8816V26.9981H27.8205V17.4341C27.8205 14.9963 25.8443 13.02 23.4064 13.02Z" fill="white"/>
<path d="M12.0986 8.9635C12.0986 10.4146 10.9224 11.5908 9.47131 11.5908C8.0202 11.5908 6.84375 10.4146 6.84375 8.9635C6.84375 7.51239 8.0202 6.33594 9.47131 6.33594C10.9224 6.33594 12.0986 7.51239 12.0986 8.9635Z" fill="white"/>
</g>
<defs>
<linearGradient id="paint0_linear_3534_20911" x1="11.7333" y1="4.6866" x2="20.1643" y2="22.7249" gradientUnits="userSpaceOnUse">
<stop stop-color="#0077B5"/>
<stop offset="1" stop-color="#0066B2"/>
</linearGradient>
<linearGradient id="paint1_linear_3534_20911" x1="24.3821" y1="20.4486" x2="-24.0469" y2="-5.53051" gradientUnits="userSpaceOnUse">
<stop stop-color="#0066B2" stop-opacity="0"/>
<stop offset="1" stop-color="#07485E"/>
</linearGradient>
<linearGradient id="paint2_linear_3534_20911" x1="17.3332" y1="27.0722" x2="17.3332" y2="34.0389" gradientUnits="userSpaceOnUse">
<stop stop-color="#0066B2" stop-opacity="0"/>
<stop offset="1" stop-color="#07485E"/>
</linearGradient>
<linearGradient id="paint3_linear_3534_20911" x1="18.332" y1="17.8242" x2="5.86864" y2="5.36079" gradientUnits="userSpaceOnUse">
<stop stop-color="#0066B2" stop-opacity="0"/>
<stop offset="1" stop-color="#07485E"/>
</linearGradient>
<linearGradient id="paint4_linear_3534_20911" x1="25.649" y1="29.403" x2="0.550903" y2="17.6382" gradientUnits="userSpaceOnUse">
<stop stop-color="#0066B2" stop-opacity="0"/>
<stop offset="1" stop-color="#07485E"/>
</linearGradient>
<linearGradient id="paint5_linear_3534_20911" x1="31.7545" y1="31.9827" x2="14.27" y2="14.4982" gradientUnits="userSpaceOnUse">
<stop stop-color="#0066B2" stop-opacity="0"/>
<stop offset="1" stop-color="#07485E"/>
</linearGradient>
<clipPath id="clip0_3534_20911">
<rect width="33.3333" height="33.3333" fill="white" transform="translate(0.666016)"/>
</clipPath>
</defs>
</svg>
