<svg width="34" height="34" viewBox="0 0 34 34" fill="none" xmlns="http://www.w3.org/2000/svg">
<g clip-path="url(#clip0_4568_141930)">
<path fill-rule="evenodd" clip-rule="evenodd" d="M25.125 33.5H8.375C6.15384 33.4999 4.02368 32.6175 2.45309 31.0469C0.882492 29.4763 9.71693e-05 27.3462 0 25.125L0 8.375C9.71693e-05 6.15384 0.882492 4.02368 2.45309 2.45309C4.02368 0.882492 6.15384 9.71693e-05 8.375 0L25.125 0C27.3462 0 29.4764 0.882364 31.047 2.45298C32.6176 4.0236 33.5 6.15381 33.5 8.375V25.125C33.5 27.3462 32.6176 29.4764 31.047 31.047C29.4764 32.6176 27.3462 33.5 25.125 33.5Z" fill="#2D0F1E"/>
<path fill-rule="evenodd" clip-rule="evenodd" d="M15.7031 9.42188H25.125C26.3327 9.4218 27.4943 8.95793 28.3698 8.12606C29.2453 7.29419 29.768 6.15785 29.8298 4.95172C29.8916 3.74559 29.4878 2.56179 28.7019 1.64478C27.916 0.727772 26.8079 0.1476 25.6066 0.0240781C25.4464 0.0151797 25.2878 0 25.125 0H8.375C6.15384 9.71693e-05 4.02368 0.882492 2.45309 2.45309C0.882492 4.02368 9.71693e-05 6.15384 0 8.375L0 25.125C9.71729e-05 20.9603 1.65456 16.9662 4.59945 14.0213C7.54433 11.0764 11.5384 9.42197 15.7031 9.42188Z" fill="#501432"/>
<path fill-rule="evenodd" clip-rule="evenodd" d="M25.125 16.75C23.4686 16.75 21.8494 17.2412 20.4721 18.1614C19.0948 19.0817 18.0214 20.3897 17.3875 21.92C16.7536 23.4504 16.5878 25.1343 16.9109 26.7589C17.2341 28.3835 18.0317 29.8758 19.203 31.047C20.3742 32.2183 21.8665 33.0159 23.4911 33.3391C25.1157 33.6622 26.7996 33.4964 28.33 32.8625C29.8603 32.2286 31.1683 31.1552 32.0886 29.7779C33.0088 28.4006 33.5 26.7814 33.5 25.125V8.375C33.5 10.5962 32.6176 12.7264 31.047 14.297C29.4764 15.8676 27.3462 16.75 25.125 16.75Z" fill="black"/>
<path fill-rule="evenodd" clip-rule="evenodd" d="M17.7961 7.32812C17.7961 7.19064 17.8232 7.05449 17.8757 6.92745C17.9283 6.80042 18.0055 6.685 18.1027 6.58778C18.1999 6.49056 18.3153 6.41345 18.4423 6.36085C18.5694 6.30826 18.7055 6.28121 18.843 6.28125H21.0566C21.2987 6.2813 21.5333 6.36525 21.7205 6.51881C21.9076 6.67237 22.0358 6.88604 22.0831 7.12346C22.2725 8.06779 22.7835 8.91726 23.5288 9.52721C24.2742 10.1372 25.208 10.4699 26.1711 10.4688C26.3086 10.4687 26.4448 10.4958 26.5718 10.5484C26.6988 10.601 26.8143 10.6781 26.9115 10.7753C27.0087 10.8725 27.0858 10.9879 27.1384 11.115C27.191 11.242 27.2181 11.3781 27.218 11.5156V13.6094C27.2181 13.7469 27.191 13.883 27.1384 14.01C27.0858 14.1371 27.0087 14.2525 26.9115 14.3497C26.8143 14.4469 26.6988 14.524 26.5718 14.5766C26.4448 14.6292 26.3086 14.6563 26.1711 14.6562C24.7008 14.6584 23.256 14.2714 21.9836 13.5345V21.9844C21.9836 23.4336 21.5538 24.8503 20.7485 26.0553C19.9433 27.2603 18.7989 28.1995 17.4599 28.754C16.121 29.3086 14.6476 29.4537 13.2262 29.1709C11.8048 28.8882 10.4992 28.1903 9.47438 27.1655C8.4496 26.1407 7.7517 24.8351 7.46895 23.4137C7.18619 21.9923 7.33128 20.5189 7.88585 19.18C8.44043 17.841 9.37959 16.6966 10.5846 15.8914C11.7896 15.0861 13.2063 14.6563 14.6555 14.6562C14.793 14.6562 14.9292 14.6833 15.0562 14.7359C15.1832 14.7885 15.2986 14.8656 15.3959 14.9628C15.4931 15.06 15.5702 15.1754 15.6228 15.3025C15.6754 15.4295 15.7024 15.5656 15.7024 15.7031V17.7969C15.7024 17.9344 15.6754 18.0705 15.6228 18.1975C15.5702 18.3246 15.4931 18.44 15.3959 18.5372C15.2986 18.6344 15.1832 18.7115 15.0562 18.7641C14.9292 18.8167 14.793 18.8438 14.6555 18.8438C14.0343 18.8437 13.427 19.0279 12.9104 19.373C12.3939 19.7181 11.9913 20.2086 11.7535 20.7825C11.5157 21.3565 11.4535 21.988 11.5747 22.5973C11.6959 23.2066 11.995 23.7663 12.4343 24.2056C12.8736 24.6449 13.4333 24.944 14.0426 25.0652C14.6519 25.1864 15.2834 25.1241 15.8573 24.8864C16.4313 24.6486 16.9218 24.246 17.2669 23.7295C17.612 23.2129 17.7962 22.6056 17.7961 21.9844V7.32812Z" fill="#FE2C55"/>
<path fill-rule="evenodd" clip-rule="evenodd" d="M16.7493 6.28125C16.7492 6.14376 16.7763 6.00761 16.8289 5.88058C16.8815 5.75355 16.9586 5.63813 17.0558 5.54091C17.153 5.44369 17.2684 5.36658 17.3955 5.31398C17.5225 5.26138 17.6587 5.23433 17.7961 5.23438H20.0098C20.2519 5.23442 20.4864 5.31837 20.6736 5.47193C20.8607 5.62549 20.9889 5.83917 21.0362 6.07659C21.2257 7.02092 21.7366 7.87038 22.482 8.48034C23.2274 9.0903 24.1611 9.42303 25.1243 9.42188C25.2618 9.42183 25.3979 9.44888 25.5249 9.50148C25.652 9.55408 25.7674 9.63119 25.8646 9.72841C25.9618 9.82563 26.0389 9.94105 26.0915 10.0681C26.1441 10.1951 26.1712 10.3313 26.1711 10.4688V12.5625C26.1712 12.7 26.1441 12.8361 26.0915 12.9632C26.0389 13.0902 25.9618 13.2056 25.8646 13.3028C25.7674 13.4001 25.652 13.4772 25.5249 13.5298C25.3979 13.5824 25.2618 13.6094 25.1243 13.6094C23.6539 13.6115 22.2092 13.2245 20.9368 12.4876V20.9375C20.9367 22.3868 20.5069 23.8035 19.7017 25.0084C18.8965 26.2134 17.752 27.1526 16.4131 27.7072C15.0741 28.2617 13.6008 28.4068 12.1793 28.1241C10.7579 27.8413 9.45229 27.1434 8.4275 26.1186C7.40272 25.0939 6.70483 23.7882 6.42207 22.3668C6.13932 20.9454 6.2844 19.472 6.83898 18.1331C7.39355 16.7941 8.33271 15.6497 9.5377 14.8445C10.7427 14.0393 12.1594 13.6094 13.6086 13.6094C13.7461 13.6093 13.8823 13.6364 14.0093 13.689C14.1363 13.7416 14.2518 13.8187 14.349 13.9159C14.4462 14.0131 14.5233 14.1285 14.5759 14.2556C14.6285 14.3826 14.6556 14.5188 14.6555 14.6562V16.75C14.6556 16.8875 14.6285 17.0236 14.5759 17.1507C14.5233 17.2777 14.4462 17.3931 14.349 17.4903C14.2518 17.5876 14.1363 17.6647 14.0093 17.7173C13.8823 17.7699 13.7461 17.7969 13.6086 17.7969C12.9874 17.7968 12.3801 17.981 11.8636 18.3261C11.347 18.6712 10.9444 19.1617 10.7066 19.7357C10.4689 20.3096 10.4067 20.9412 10.5278 21.5505C10.649 22.1597 10.9482 22.7194 11.3874 23.1587C11.8267 23.598 12.3864 23.8971 12.9957 24.0183C13.605 24.1395 14.2365 24.0773 14.8105 23.8395C15.3844 23.6018 15.8749 23.1991 16.22 22.6826C16.5651 22.166 16.7493 21.5587 16.7493 20.9375V6.28125Z" fill="#25F4EE"/>
<path fill-rule="evenodd" clip-rule="evenodd" d="M11.9739 23.6196C12.3305 24.2045 12.8685 24.6568 13.506 24.9076C14.1434 25.1583 14.8454 25.1938 15.5049 25.0086C16.1645 24.8234 16.7453 24.4276 17.1591 23.8816C17.5728 23.3357 17.7967 22.6694 17.7966 21.9844V7.32813C17.7966 7.19064 17.8236 7.05449 17.8762 6.92745C17.9288 6.80042 18.0059 6.685 18.1031 6.58778C18.2004 6.49056 18.3158 6.41345 18.4428 6.36085C18.5698 6.30826 18.706 6.28121 18.8435 6.28125H21.0571C21.066 6.28125 21.0744 6.28125 21.0828 6.28177C21.3289 7.25474 21.9188 8.10574 22.7436 8.67755C23.1276 9.23103 23.6401 9.68313 24.2371 9.9951C24.8342 10.3071 25.498 10.4696 26.1716 10.4688V12.5625C26.1716 12.7 26.1446 12.8361 26.092 12.9632C26.0394 13.0902 25.9623 13.2056 25.8651 13.3028C25.7679 13.4001 25.6524 13.4772 25.5254 13.5298C25.3984 13.5824 25.2622 13.6094 25.1247 13.6094C23.6544 13.6115 22.2096 13.2245 20.9372 12.4876V20.9375C20.9373 22.3238 20.5441 23.6817 19.8033 24.8534C19.0625 26.0252 18.0046 26.9628 16.7523 27.5574C15.5 28.1521 14.1047 28.3792 12.7285 28.2127C11.3522 28.0461 10.0515 27.4925 8.97721 26.6163C8.10113 25.542 7.54771 24.2412 7.38119 22.865C7.21468 21.4889 7.4419 20.0937 8.03648 18.8414C8.63106 17.5892 9.56861 16.5312 10.7403 15.7905C11.912 15.0497 13.2698 14.6564 14.656 14.6563V16.75C14.656 16.8875 14.629 17.0236 14.5764 17.1507C14.5238 17.2777 14.4467 17.3931 14.3495 17.4903C14.2522 17.5876 14.1368 17.6647 14.0098 17.7173C13.8827 17.7699 13.7466 17.7969 13.6091 17.7969C12.9242 17.797 12.258 18.021 11.7122 18.4347C11.1663 18.8484 10.7706 19.4293 10.5854 20.0887C10.4003 20.7481 10.4357 21.45 10.6863 22.0875C10.937 22.7249 11.3891 23.2629 11.9739 23.6196Z" fill="white"/>
</g>
<defs>
<clipPath id="clip0_4568_141930">
<rect width="33.5" height="33.5" fill="white"/>
</clipPath>
</defs>
</svg>
