<svg width="34" height="34" viewBox="0 0 34 34" fill="none" xmlns="http://www.w3.org/2000/svg">
<g clip-path="url(#clip0_3534_20905)">
<path d="M27.4825 32.7627C20.3534 33.5236 13.2026 33.5236 6.07345 32.7627C3.23073 32.4593 0.985402 30.2139 0.682007 27.371C-0.0788981 20.2418 -0.0788981 13.0913 0.682007 5.96212C0.985402 3.11941 3.23073 0.874074 6.07345 0.570679C13.2026 -0.190226 20.3531 -0.190226 27.4823 0.570679C30.3253 0.874074 32.5706 3.11941 32.874 5.96212C33.6349 13.0913 33.6349 20.2418 32.874 27.371C32.5706 30.2139 30.3255 32.4593 27.4825 32.7627Z" fill="url(#paint0_linear_3534_20905)"/>
<path d="M31.0607 7.16805C30.7917 4.64551 28.7994 2.65297 26.2766 2.38365C19.9503 1.7087 13.6052 1.7087 7.27888 2.38365C4.75635 2.65297 2.76381 4.64551 2.49449 7.16805C1.81954 13.4943 1.81954 19.8395 2.49449 26.1655C2.76381 28.6883 4.75635 30.6808 7.27888 30.9499C13.6052 31.6251 19.9503 31.6251 26.2763 30.9499C28.7991 30.6808 30.7917 28.6883 31.0607 26.1655C31.7359 19.8395 31.7359 13.4943 31.0607 7.16805Z" fill="url(#paint1_linear_3534_20905)"/>
<path d="M0.611328 26.6802C0.634216 26.9106 0.657867 27.141 0.682536 27.3714C0.985931 30.2141 3.23126 32.4594 6.07423 32.7628C13.2034 33.5237 20.3539 33.5237 27.4831 32.7628C30.326 32.4594 32.5711 30.2141 32.8745 27.3714C32.8992 27.141 32.9228 26.9106 32.946 26.6802H0.611328Z" fill="url(#paint2_linear_3534_20905)"/>
<path d="M33.4375 15.4954L26.5184 8.5766C25.743 9.01987 25.0597 9.26579 24.545 9.4021C24.2555 9.47967 24.0193 9.52188 23.8494 9.54502C23.0692 8.74521 21.9797 8.24854 20.7737 8.24854C18.401 8.24854 16.4771 10.1722 16.4771 12.5454C16.4771 12.6311 16.4794 12.7158 16.485 12.8002C16.4964 13.006 16.5226 13.2081 16.5631 13.4047C15.5725 13.39 12.3529 13.1255 9.28235 10.4934C9.28209 10.4934 9.28209 10.4931 9.28209 10.4931H9.28184L7.83378 9.04479C7.83378 9.04479 6.13497 12.0098 8.63258 14.2597C8.74219 14.3821 8.86273 14.5029 8.99472 14.6216C9.00515 14.6333 9.01608 14.6448 9.02651 14.6565C8.6987 14.6343 7.71273 14.5362 7.14205 14.1331C7.14205 14.1331 7.02735 15.9453 8.53721 17.2794L9.75639 18.5091C9.38509 18.5398 8.97438 18.5324 8.68878 18.4073C8.68878 18.4073 8.94157 19.4808 9.91864 20.3399L11.6266 22.0567C10.602 22.6536 8.80831 23.4005 6.44727 23.2098L16.8082 33.3335C20.3681 33.3325 23.928 33.1422 27.4825 32.7628C30.3255 32.4594 32.5708 30.2141 32.8742 27.3714C33.2961 23.4168 33.4835 19.4556 33.4375 15.4954Z" fill="url(#paint3_linear_3534_20905)"/>
<path d="M27.1092 10.2454C26.3717 10.6312 25.2608 10.8095 24.8926 10.8608C24.8895 10.843 24.8865 10.826 24.8834 10.809C26.1354 10.0346 26.5187 8.5766 26.5187 8.5766C25.7433 9.01987 25.0599 9.26579 24.5452 9.4021C24.2558 9.47967 24.0195 9.52163 23.8497 9.54502C23.0694 8.74495 21.9799 8.24854 20.774 8.24854C18.4013 8.24854 16.4774 10.1719 16.4774 12.5454C16.4774 12.6309 16.4797 12.7158 16.4853 12.8C16.4967 13.0057 16.5229 13.2079 16.5633 13.4045C15.4149 13.3874 11.2693 13.0352 7.83404 9.04479C7.83404 9.04479 5.92109 12.3824 9.13714 14.6623C9.13714 14.6623 7.83404 14.6216 7.1423 14.1331C7.1423 14.1331 6.93885 17.3491 10.6429 18.3664C10.6429 18.3664 9.34059 18.6924 8.68878 18.4073C8.68878 18.4073 9.34033 21.1753 12.5968 21.3792C12.5968 21.3792 10.2612 23.5175 6.44727 23.2098C8.32308 24.3974 10.547 25.0848 12.9315 25.0848C19.6359 25.0848 25.0711 19.6499 25.0711 12.9454C25.0711 12.8618 25.0704 12.7781 25.0686 12.6944C25.0704 12.6448 25.0711 12.5955 25.0711 12.5454C25.0711 12.5106 25.0704 12.4757 25.0699 12.4409C26.3094 11.6149 27.1092 10.2454 27.1092 10.2454Z" fill="white"/>
</g>
<defs>
<linearGradient id="paint0_linear_3534_20905" x1="11.1786" y1="4.6866" x2="19.6096" y2="22.7249" gradientUnits="userSpaceOnUse">
<stop stop-color="#00C3FF"/>
<stop offset="1" stop-color="#00B0ED"/>
</linearGradient>
<linearGradient id="paint1_linear_3534_20905" x1="23.8274" y1="20.4486" x2="-24.6016" y2="-5.53051" gradientUnits="userSpaceOnUse">
<stop stop-color="#00B0ED" stop-opacity="0"/>
<stop offset="1" stop-color="#00A2CE"/>
</linearGradient>
<linearGradient id="paint2_linear_3534_20905" x1="16.7785" y1="28.4757" x2="16.7785" y2="32.8434" gradientUnits="userSpaceOnUse">
<stop stop-color="#00B0ED" stop-opacity="0"/>
<stop offset="1" stop-color="#00A2CE"/>
</linearGradient>
<linearGradient id="paint3_linear_3534_20905" x1="31.9747" y1="31.3851" x2="15.6903" y2="15.1007" gradientUnits="userSpaceOnUse">
<stop stop-color="#00B0ED" stop-opacity="0"/>
<stop offset="1" stop-color="#00A2CE"/>
</linearGradient>
<clipPath id="clip0_3534_20905">
<rect width="33.3333" height="33.3333" fill="white" transform="translate(0.111328)"/>
</clipPath>
</defs>
</svg>
