<svg width="33" height="33" viewBox="0 0 33 33" fill="none" xmlns="http://www.w3.org/2000/svg">
<g clip-path="url(#clip0_4568_141938)">
<path d="M30.3947 0H2.60526C1.16642 0 0 1.16642 0 2.60526V30.3947C0 31.8336 1.16642 33 2.60526 33H30.3947C31.8336 33 33 31.8336 33 30.3947V2.60526C33 1.16642 31.8336 0 30.3947 0Z" fill="#FF0000"/>
<path d="M21.9 10.293H11.1012C10.6697 10.293 10.2423 10.378 9.84367 10.5432C9.445 10.7084 9.08279 10.9506 8.77774 11.2558C8.47268 11.5611 8.23077 11.9235 8.06582 12.3222C7.90088 12.721 7.81612 13.1484 7.81641 13.5799V19.4201C7.81612 19.8516 7.90088 20.279 8.06582 20.6778C8.23077 21.0766 8.47268 21.4389 8.77774 21.7442C9.08279 22.0494 9.445 22.2916 9.84367 22.4568C10.2423 22.622 10.6697 22.707 11.1012 22.707H21.9C22.3316 22.707 22.7589 22.622 23.1576 22.4568C23.5562 22.2916 23.9184 22.0494 24.2235 21.7442C24.5285 21.4389 24.7705 21.0766 24.9354 20.6778C25.1004 20.279 25.1851 19.8516 25.1848 19.4201V13.5799C25.1851 13.1484 25.1004 12.721 24.9354 12.3222C24.7705 11.9235 24.5285 11.5611 24.2235 11.2558C23.9184 10.9506 23.5562 10.7084 23.1576 10.5432C22.7589 10.378 22.3316 10.293 21.9 10.293ZM14.2123 19.1617V13.8383L18.7889 16.5L14.2123 19.1617Z" fill="white"/>
</g>
<defs>
<clipPath id="clip0_4568_141938">
<rect width="33" height="33" fill="white"/>
</clipPath>
</defs>
</svg>
