<svg width="34" height="34" viewBox="0 0 34 34" fill="none" xmlns="http://www.w3.org/2000/svg">
<g clip-path="url(#clip0_4568_141944)">
<path d="M6.20967 0.169187C7.3508 -0.0107644 8.51132 -0.0118419 9.6643 0.0140193L9.56517 0.105611C8.05659 1.09373 6.80556 2.45037 5.90149 4.00743C4.08904 7.12479 3.4285 10.8111 3.57828 14.3843C3.72699 17.2937 4.42524 20.2192 5.9058 22.7482C6.15364 23.2008 6.56634 23.6006 6.5728 24.1501C6.61914 25.329 6.03618 26.4399 5.24741 27.2826C5.29914 27.3364 5.34978 27.3903 5.4015 27.4442C6.13963 28.2502 6.92732 29.0077 7.6773 29.803C8.74299 31.0077 9.9574 32.0744 11.0015 33.3007C9.26453 33.3266 7.50704 33.4074 5.7905 33.083C3.63001 32.6639 1.71196 31.1661 0.796043 29.164C0.241103 28.0067 0.0751603 26.7125 0.0320582 25.4443C0.0309806 19.5888 0.0309806 13.7345 0.0320582 7.88015C0.0557643 5.92332 0.574067 3.87597 1.95118 2.4245C3.04166 1.19502 4.5858 0.395473 6.20967 0.169187Z" fill="#0068FF"/>
<path d="M22.029 10.9219C22.4913 10.9219 22.9535 10.9219 23.4169 10.9219C23.4093 13.6298 23.4093 16.3387 23.4169 19.0466C22.9643 18.983 22.2111 19.2729 22.0409 18.6706C22.0128 16.0887 22.0387 13.5048 22.029 10.9219Z" fill="#0068FF"/>
<path d="M7.88725 11.0178C10.038 11.0156 12.1867 11.0016 14.3364 11.0167C14.3213 11.438 14.2976 11.897 14.0153 12.2375C12.5455 14.0672 11.107 15.9206 9.63827 17.7503C11.1996 17.76 12.761 17.7535 14.3224 17.7535C14.2933 18.1188 14.4215 18.5445 14.1845 18.8613C14.0358 19.066 13.7664 19.0477 13.5433 19.0498C11.5897 19.0391 9.63612 19.0595 7.68359 19.0391C7.68898 18.6264 7.69329 18.1695 7.98208 17.8408C9.43462 16.0187 10.9044 14.2095 12.3505 12.383C10.8645 12.3852 9.37751 12.3733 7.89156 12.3895C7.88186 11.9326 7.8851 11.4746 7.88725 11.0178Z" fill="#0068FF"/>
<path d="M26.8589 12.8099C28.4063 12.464 30.0851 13.4802 30.5086 15.0038C31.0398 16.5889 30.07 18.4736 28.4677 18.9563C27.1067 19.4358 25.4775 18.8097 24.7717 17.5555C24.2178 16.6288 24.1844 15.4155 24.6876 14.4618C25.1143 13.6203 25.9387 13.005 26.8589 12.8099ZM26.833 14.1827C25.8891 14.5157 25.3805 15.6644 25.749 16.5921C26.054 17.4693 27.0809 18.0059 27.9731 17.7365C28.9914 17.493 29.6067 16.3001 29.2457 15.3228C28.944 14.3551 27.7748 13.797 26.833 14.1827Z" fill="#0068FF"/>
<path d="M15.3976 13.9382C16.1422 13.0158 17.446 12.5611 18.5947 12.8897C18.974 12.9856 19.3177 13.1753 19.6496 13.3768C19.6464 13.2755 19.6389 13.074 19.6356 12.9727C20.0699 12.9705 20.503 12.9716 20.9373 12.9695C20.9351 14.9953 20.933 17.0211 20.9384 19.0479C20.6194 19.0393 20.2951 19.077 19.9815 19.0124C19.7617 18.9229 19.6938 18.6827 19.6065 18.4865C18.4083 19.4175 16.5258 19.2063 15.5301 18.0728C14.4688 16.9747 14.4138 15.1041 15.3976 13.9382ZM17.1519 14.2097C16.154 14.561 15.6702 15.8465 16.1756 16.7732C16.6066 17.6762 17.8199 18.0555 18.6874 17.5577C19.4923 17.1353 19.8641 16.0868 19.5182 15.2485C19.183 14.3369 18.0527 13.8261 17.1519 14.2097Z" fill="#0068FF"/>
<path d="M9.56598 0.10587C9.80735 0.0369064 10.0595 0.0153554 10.3095 0.0078125C14.6186 0.0239758 18.9278 0.00565739 23.2369 0.0132003C24.3888 0.0272084 25.5472 -0.0503754 26.6904 0.125266C28.2734 0.245952 29.797 0.91619 30.9748 1.97542C32.4532 3.3881 33.242 5.42252 33.2668 7.45155C33.2678 13.1637 33.2646 18.8801 33.27 24.59C33.2549 24.6234 33.2258 24.6924 33.2107 24.7269C31.6752 26.4445 29.6106 27.6072 27.4523 28.3593C24.544 29.3507 21.4288 29.6696 18.3717 29.4369C15.3147 29.1739 12.234 28.3755 9.64141 26.6859C8.31602 27.2753 6.85378 27.5641 5.40232 27.4445C5.35059 27.3906 5.29995 27.3367 5.24823 27.2828C6.03699 26.4402 6.61995 25.3292 6.57361 24.1504C6.56715 23.6008 6.15445 23.2011 5.90661 22.7485C4.42605 20.2195 3.7278 17.2939 3.5791 14.3845C3.42932 10.8114 4.08986 7.12505 5.9023 4.00769C6.80637 2.45062 8.0574 1.09399 9.56598 0.10587ZM22.0311 10.9213C22.0408 13.5042 22.0149 16.0881 22.043 18.67C22.2132 19.2723 22.9664 18.9824 23.419 19.046C23.4115 16.3381 23.4115 13.6292 23.419 10.9213C22.9556 10.9213 22.4934 10.9213 22.0311 10.9213ZM7.88931 11.0172C7.88715 11.4741 7.88392 11.932 7.89362 12.3889C9.37956 12.3727 10.8666 12.3846 12.3525 12.3824C10.9065 14.2089 9.43667 16.0181 7.98413 17.8402C7.69535 18.1689 7.69104 18.6258 7.68565 19.0385C9.63818 19.0589 11.5918 19.0385 13.5454 19.0492C13.7684 19.0471 14.0378 19.0654 14.1865 18.8607C14.4236 18.5439 14.2954 18.1182 14.3245 17.753C12.7631 17.753 11.2017 17.7594 9.64033 17.7497C11.109 15.92 12.5476 14.0666 14.0173 12.237C14.2997 11.8965 14.3234 11.4374 14.3385 11.0161C12.1887 11.001 10.0401 11.015 7.88931 11.0172ZM26.8596 12.8102C25.9394 13.0053 25.1151 13.6205 24.6884 14.4621C24.1851 15.4157 24.2185 16.6291 24.7724 17.5558C25.4782 18.81 27.1075 19.4361 28.4684 18.9566C30.0707 18.4738 31.0405 16.5892 30.5093 15.0041C30.0858 13.4805 28.407 12.4643 26.8596 12.8102ZM15.3966 13.9384C14.4128 15.1043 14.4678 16.975 15.5292 18.073C16.5248 19.2066 18.4073 19.4178 19.6055 18.4868C19.6928 18.6829 19.7607 18.9232 19.9805 19.0126C20.2941 19.0773 20.6184 19.0396 20.9374 19.0482C20.932 17.0213 20.9342 14.9955 20.9363 12.9697C20.5021 12.9719 20.0689 12.9708 19.6346 12.9729C19.6379 13.0742 19.6454 13.2757 19.6486 13.377C19.3168 13.1755 18.973 12.9859 18.5937 12.89C17.445 12.5613 16.1412 13.016 15.3966 13.9384Z" fill="white"/>
<path d="M17.1513 14.2108C18.0522 13.8272 19.1825 14.3379 19.5176 15.2496C19.8635 16.0879 19.4918 17.1363 18.6868 17.5587C17.8194 18.0566 16.6061 17.6773 16.1751 16.7743C15.6697 15.8476 16.1535 14.5621 17.1513 14.2108Z" fill="white"/>
<path d="M26.8335 14.1838C27.7753 13.798 28.9444 14.3562 29.2462 15.3238C29.6071 16.3012 28.9918 17.494 27.9736 17.7376C27.0813 18.007 26.0544 17.4703 25.7495 16.5932C25.381 15.6654 25.8896 14.5168 26.8335 14.1838Z" fill="white"/>
<path d="M33.2108 24.7274L33.2959 24.6348C33.3401 26.319 33.1579 28.0765 32.3315 29.5753C31.3703 31.3339 29.6268 32.6399 27.6657 33.058C26.5655 33.2854 25.4373 33.336 24.3166 33.322C20.8695 33.3231 17.4224 33.322 13.9754 33.3231C12.984 33.3069 11.9905 33.3532 11.0024 33.3015C9.95824 32.0753 8.74383 31.0085 7.67814 29.8038C6.92816 29.0086 6.14047 28.251 5.40234 27.445C6.85381 27.5646 8.31605 27.2758 9.64144 26.6864C12.234 28.376 15.3148 29.1745 18.3718 29.4374C21.4288 29.6702 24.544 29.3512 27.4523 28.3599C29.6106 27.6077 31.6752 26.4451 33.2108 24.7274Z" fill="#005BE0"/>
</g>
<defs>
<clipPath id="clip0_4568_141944">
<rect width="33.33" height="33.33" fill="white"/>
</clipPath>
</defs>
</svg>
